# xmcd CD database file
#
# Track frame offsets:
#	150
#	23457
#	51230
#	70050
#	103280
#	128712
#	150970
#	180400
#	200327
#	219987
#	254462
#	270372
#	291550
#	319840
#	337922
#
# Disc length: 4779 seconds
#
# Revision: 2
# Processed by: cddbd v1.5.2PL0 Copyright (c) Steve Scherf et al.
# Submitted via: CDex 1.70beta2
#
DISCID=d112a90f
DTITLE=Art Pepper - The Art Of Pepper
DYEAR=1958
DGENRE=Jazz
TTITLE0=Holiday Flight
TTITLE1=Too Close for Comfort
TTITLE2=Long Ago (And Far Away)
TTITLE3=Begin the Beguine
TTITLE4=I Can't Believe That You're in Love With Me
TTITLE5=Webb City
TTITLE6=Summertime
TTITLE7=Fascinating Rhythm
TTITLE8=Body and Soul
TTITLE9=Without a Song
TTITLE10=The Breeze and I
TTITLE11=Surf Ride
TTITLE12=Begin the Beguine [Alternate Take]
TTITLE13=Fascinating Rhythm [Alternate Take]
TTITLE14=Webb City [Alternate Take]
EXTD=YEAR: 1958
EXTT0=
EXTT1=
EXTT2=
EXTT3=
EXTT4=
EXTT5=
EXTT6=
EXTT7=
EXTT8=
EXTT9=
EXTT10=
EXTT11=
EXTT12=
EXTT13=
EXTT14=
PLAYORDER=
